<?xml version="1.0" encoding="UTF-8" standalone="no"?>
<svg width="174px" height="49px" viewBox="0 0 174 49" version="1.1" xmlns="http://www.w3.org/2000/svg" xmlns:xlink="http://www.w3.org/1999/xlink" xmlns:sketch="http://www.bohemiancoding.com/sketch/ns">
    <!-- Generator: Sketch 3.3.3 (12072) - http://www.bohemiancoding.com/sketch -->
    <title>code-convoy</title>
    <desc>Created with Sketch.</desc>
    <defs></defs>
    <g id="Page-1" stroke="none" stroke-width="1" fill="none" fill-rule="evenodd" sketch:type="MSPage">
        <g id="Home---Tim-Hover" sketch:type="MSArtboardGroup" transform="translate(-617.000000, -59.000000)">
            <g id="Hero" sketch:type="MSLayerGroup" transform="translate(1.000000, -200.000000)">
                <g id="Navigation" transform="translate(168.000000, 224.000000)" sketch:type="MSShapeGroup">
                    <g id="code-convoy" transform="translate(448.000000, 35.000000)">
                        <g id="convoy-+-Path-65-+-Path-66-Copy" transform="translate(83.000000, 2.000000)">
                            <path d="M1,33 C1,33 19.75,26.7222741 42,30 C64.25,33.2777259 70,34 90,24" id="wave" stroke="#515B80" stroke-width="2" stroke-linecap="round"></path>
                            <path d="M1,10 C1,10 15.2542373,3.33333333 33.440678,6.66666667 C51.6271187,10 78.1694915,9.40952392 88,2.11471052e-16" id="wave" stroke="#515B80" stroke-width="2" stroke-linecap="round"></path>
                            <path d="M37.9958186,18.3149021 C36.1017207,21.2248202 34.2403247,21.763356 33.4967754,21.4087929 C33.4013118,21.363041 33.1105218,21.2240248 33.2926505,20.6947958 C33.47082,20.1770046 33.7871257,19.6152209 34.1223479,19.0208833 C34.6418985,18.0988015 35.2309573,17.0535413 35.4293629,15.8961004 C35.7016762,14.3062136 35.0571873,12.9503663 33.7875654,12.4418138 C32.6745566,11.9961702 31.0362779,12.2152523 29.4015186,13.8816862 C29.1679189,13.3880909 28.8107005,13.0031571 28.400251,12.7541597 C27.1684626,12.0071683 25.0986182,12.2262505 23.2518158,14.3994767 C23.2386179,14.4148743 23.2258604,14.4307116 23.2135426,14.4465489 C22.5307797,15.3175994 21.7890672,16.2181247 21.0231586,16.8661331 C21.0671511,16.0003622 20.9373735,15.2265354 20.6320659,14.5640093 C20.1983004,13.6225714 19.4315125,12.9648846 18.4144075,12.6617767 C18.0541093,12.5539953 17.6726949,12.4994445 17.2816022,12.4994445 C14.7430362,12.4994445 11.9495101,14.7828559 11.3138432,18.2148326 C9.75372339,20.6250775 7.75546842,22.1914194 5.6266848,22.1914194 C3.93077612,22.1914194 2.81160834,21.2407428 2.77509454,19.7691958 C2.74518,18.5488453 3.38966897,17.0478235 4.37861883,16.0337976 C4.98087544,15.4165837 5.64340147,15.0624444 6.1959464,15.0624444 C6.47969751,15.0624444 6.85671304,15.1420706 6.85671304,15.8309924 C6.85671304,16.0821895 6.80172249,16.3677007 6.69306111,16.6796069 C6.49377541,17.2528284 6.79688329,17.8788406 7.36966504,18.0781263 C7.9424468,18.277412 8.56889938,17.9743041 8.76818508,17.4015224 C8.95779238,16.8568958 9.05369558,16.3289865 9.05369558,15.8314321 C9.05369558,14.0853721 7.87865722,12.8659016 6.1959464,12.8659016 C5.03806507,12.8659016 3.83399221,13.446162 2.80588911,14.5002211 C1.40824912,15.9321752 0.5336792,18.0222557 0.577671639,19.8241863 C0.643660299,22.5121247 2.71966363,24.389282 5.62580409,24.389282 L5.62712448,24.3892813 C7.78866482,24.3892813 9.78570432,23.3453835 11.4831999,21.5588972 L11.4831999,21.5588972 C12.1061568,23.2795528 13.5972147,24.0694561 15.078021,24.0694561 C17.136427,24.0694561 19.0927708,22.6590586 20.0619242,20.4752739 C20.1675058,20.237715 20.2642891,20.0036749 20.3522739,19.7731543 C22.1634426,19.171338 23.6512672,17.4490343 24.9367264,15.8098762 C25.9960644,14.5692896 26.9238648,14.4293939 27.260847,14.6335188 C27.5520768,14.8094886 27.574073,15.3558746 27.3158376,15.9920056 C27.0219684,16.7156811 26.2613394,18.094404 25.5257858,19.427375 C24.9622427,20.4488795 24.3793429,21.5046981 23.917862,22.4184212 C23.6446686,22.9599681 23.8619914,23.6207347 24.4035382,23.893928 C24.562351,23.9739946 24.7312818,24.0122678 24.8980128,24.0122678 C25.2992236,24.0122678 25.6863572,23.7914256 25.879484,23.4086915 C26.3114901,22.5539187 26.8662348,21.5460517 27.4069016,20.5667803 C27.4214192,20.5469838 27.4354971,20.526747 27.4491346,20.5060705 C27.4623325,20.485394 28.8120202,18.4177493 30.0856012,16.524315 C31.3191489,14.6898304 32.510904,14.2987377 32.9701851,14.4821861 C33.2957289,14.6128437 33.3348822,15.1073189 33.2631743,15.5265668 C33.1294376,16.3078723 32.6815948,17.1023757 32.2077961,17.9435109 C31.8386995,18.5981186 31.4577248,19.2747225 31.2144467,19.9825607 C30.7322893,21.3841599 31.2813147,22.7866391 32.5491772,23.3928548 C32.9697448,23.5934603 33.4492621,23.701682 33.9696927,23.701682 C35.7496271,23.701682 38.0051197,22.4351399 39.9838995,19.2866007 C40.0246297,19.2217875 40.0577585,19.1543634 40.0835243,19.0853695 L41.3599849,17.1138148 L41.6283391,23.1614555 C41.6490156,23.6273353 41.9609218,24.0289865 42.4070051,24.1640436 C42.512147,24.1957182 42.6194887,24.2111158 42.7255106,24.2111158 L42.725949,24.2128719 C43.0695298,24.2128719 43.4012325,24.05098 43.611956,23.7632698 L47.83743,17.995421 C48.1123827,19.5175597 48.9491191,20.5782174 49.9904201,21.0876499 C51.0328551,21.5976739 52.1770421,21.5474607 53.1864042,21.0236465 C53.6482173,23.176471 55.3096546,24.1556809 56.9583833,24.1556809 C58.5975413,24.1556809 60.1715907,23.2617542 61.2344483,21.7950464 C61.4126178,21.8487173 61.5943068,21.8927097 61.7786352,21.9261437 C62.071625,21.9793749 62.361535,22.0057706 62.6474859,22.0057706 C64.3737494,22.0057706 65.9433994,21.0462956 67.0458498,19.2830785 C67.0888931,19.2141857 67.1233772,19.1423769 67.1495882,19.0688946 C68.493569,16.6958429 70.0040629,14.0379789 70.6272758,13.8759696 C70.7574937,13.8759696 70.8226024,13.8759696 70.8226024,14.16544 C70.8226024,14.3176541 70.7904881,14.5750101 70.6435535,14.9533454 C70.4640642,15.2467749 69.8692863,16.2436437 69.1398915,17.7341078 C68.9194897,18.1832709 68.248605,19.549676 68.248605,20.9253197 C68.248605,22.4804528 69.1209751,23.5983008 70.6404737,23.992033 C71.2691254,24.1556849 71.9290119,24.1534852 72.5259897,24.0144689 L61.4456141,45.0956459 C61.1631827,45.6323535 61.3695074,46.2966396 61.9066554,46.579071 C62.0698676,46.6648561 62.2445176,46.7057687 62.4169679,46.7057687 C62.8115802,46.7057687 63.1934342,46.4915258 63.3900805,46.11759 L74.8800255,24.257747 C75.3432659,24.3738871 75.84302,24.4381163 76.3696096,24.4381163 C78.8186686,24.4381163 81.8422688,23.049715 84.4277047,19.0310054 C84.7558886,18.5206928 84.6080739,17.8410098 84.0977614,17.5128259 L84.0995188,17.5115035 C83.5892062,17.1837599 82.9095231,17.3302548 82.5813392,17.8414468 C80.3020911,21.3845976 77.7800044,22.413141 75.9507987,22.2217736 L77.5525636,19.1744172 C78.9075308,16.9422405 80.0214197,14.4879026 80.068492,14.3840804 C80.3130898,13.8429733 80.0830096,13.2046432 79.5489414,12.9442081 C79.0148732,12.6828929 78.3712636,12.8940567 78.0949911,13.4202066 L75.6384534,18.0930836 L75.5421099,18.252336 C74.9385336,19.2558034 73.335449,21.9208655 71.6259027,21.9208655 C71.4824876,21.9208655 71.3368727,21.9019491 71.1925776,21.8645552 C70.6343134,21.7198204 70.4460258,21.4827012 70.4460258,20.9248774 C70.4460258,20.3507759 70.6703875,19.6029044 71.1309884,18.6641059 C71.9166934,17.0597016 72.5519444,16.045236 72.558543,16.0355577 C72.5915373,15.9827669 72.6201321,15.9264566 72.6443281,15.8688266 C72.8937652,15.2634909 73.0204636,14.6902694 73.0204636,14.1645599 C73.0204636,12.7004916 72.0363529,11.678107 70.6277148,11.678107 C68.8099469,11.678107 67.6027942,13.809981 65.197288,18.0574511 L65.1409777,18.1564341 C65.1203963,18.1928078 65.1021122,18.2298581 65.0860793,18.267417 L65.0860793,18.267417 C64.3247401,19.4015333 63.3314819,19.9366549 62.262991,19.7793132 C63.032419,17.731465 63.1204039,15.9695677 62.5124281,14.6502341 C62.0786626,13.7087962 61.3118747,13.0511094 60.2947697,12.7480015 C59.9344715,12.6402201 59.5530572,12.5856693 59.1619644,12.5856693 C56.7119943,12.5856693 54.0245497,14.7124799 53.268542,17.9459749 C53.2321649,17.9890576 53.1986427,18.035492 53.1684335,18.0851666 C52.578055,19.0582792 51.6907276,19.4722482 50.9564937,19.1137101 C50.0185746,18.6548692 49.4669097,16.9629197 50.4721372,14.332612 C50.6687834,13.8183403 50.4545405,13.2385203 49.9715037,12.9754457 C49.4871471,12.711491 48.8844509,12.8469878 48.5597864,13.2913117 L43.6849843,19.9451682 L43.4029926,13.5843015 C43.3818764,13.1065436 43.0545726,12.6974138 42.593532,12.5720351 C42.1307313,12.4470967 41.6428553,12.6340646 41.3833002,13.0352754 L38.103224,18.1014449 C38.0589247,18.1699344 38.023213,18.241509 37.9958186,18.3149021 Z M15.07758,21.8724762 C13.9966855,21.8724762 13.3768321,21.0757731 13.3768321,19.6856118 C13.3768321,16.640455 15.6890747,14.6968694 17.2811612,14.6968694 C17.4597704,14.6968694 17.6295812,14.720625 17.7866345,14.7672569 C18.1975238,14.8899955 18.4676373,15.1174363 18.6365681,15.4834537 C18.8882049,16.0307198 18.8974436,16.8256635 18.6774814,17.7732604 C18.1645294,17.6874752 17.9287299,17.399765 17.8205082,17.1520873 C17.5781101,16.5960229 16.9296613,16.3421864 16.374477,16.5850248 C15.8184125,16.8278633 15.5641363,17.475432 15.8069748,18.0310568 C16.2051065,18.9425802 16.963976,19.5817903 17.9256508,19.8523435 C17.202415,21.2460237 15.9974621,21.873796 15.0788997,21.873796 L15.07758,21.8724762 Z M56.9579436,21.958699 C55.877049,21.958699 55.2571957,21.1615562 55.2571957,19.7713949 C55.2571957,16.7262382 57.5694382,14.7826525 59.1615247,14.7826525 C59.3401339,14.7826525 59.5099448,14.8064081 59.6669981,14.85304 C60.0778873,14.9757786 60.3480009,15.2032194 60.5169317,15.5692369 C60.8354372,16.2612377 60.7654894,17.3500506 60.3348037,18.6421084 C60.0563314,18.2923686 59.8566061,17.8871979 59.7703806,17.4595914 C59.6502814,16.8648134 59.0709011,16.4803192 58.4761231,16.599539 C57.8813451,16.7196382 57.4964113,17.2990186 57.6160708,17.8937965 C57.8364726,18.9883286 58.4484076,19.9803583 59.2926227,20.7154723 C58.5878636,21.5671659 57.6833791,21.9586984 56.9575039,21.9586984 L56.9579436,21.958699 Z" id="convoy" fill="#515B80"></path>
                        </g>
                        <path d="M12.9198195,42 C13.1647449,42 13.2872077,41.9392185 13.4709018,41.7568741 L15.6139998,39.6295224 C15.7976939,39.447178 15.8589253,39.3256151 15.8589253,39.0824891 L15.8589253,33.4298119 L16.3487763,31.9710564 C16.471239,31.6671491 16.3487763,31.4848046 16.0426194,31.4848046 L10.4093332,31.4848046 C10.1031764,31.4848046 9.98071361,31.6671491 10.1031764,31.9710564 L10.5930273,33.4298119 L10.5930273,36.7120116 L5.26589798,36.7120116 L5.26589798,5.22720695 L10.5930273,5.22720695 L10.5930273,8.50940666 L10.1031764,9.96816208 C9.98071361,10.2720695 10.1031764,10.4544139 10.4093332,10.4544139 L16.0426194,10.4544139 C16.3487763,10.4544139 16.471239,10.2720695 16.3487763,9.96816208 L15.8589253,8.50940666 L15.8589253,2.91751085 C15.8589253,2.67438495 15.7976939,2.552822 15.6139998,2.37047757 L13.4709018,0.243125904 C13.2872077,0.0607814761 13.1647449,0 12.9198195,0 L2.93910585,0 C2.69418036,0 2.57171762,0.0607814761 2.3880235,0.243125904 L0.244925487,2.37047757 C0.0612313718,2.552822 -1.24344979e-13,2.67438495 -1.24344979e-13,2.91751085 L-1.24344979e-13,39.0824891 C-1.24344979e-13,39.3256151 0.0612313718,39.447178 0.244925487,39.6295224 L2.3880235,41.7568741 C2.57171762,41.9392185 2.69418036,42 2.93910585,42 L12.9198195,42 Z M22.716839,0 C22.4719135,0 22.3494507,0.0607814761 22.1657566,0.243125904 L20.0226586,2.37047757 C19.8389645,2.552822 19.7777331,2.67438495 19.7777331,2.91751085 L19.7777331,39.0824891 C19.7777331,39.3256151 19.8389645,39.447178 20.0226586,39.6295224 L22.1657566,41.7568741 C22.3494507,41.9392185 22.4719135,42 22.716839,42 L32.6975526,42 C32.9424781,42 33.0649408,41.9392185 33.2486349,41.7568741 L35.3917329,39.6295224 C35.575427,39.447178 35.6366584,39.3256151 35.6366584,39.0824891 L35.6366584,2.91751085 C35.6366584,2.67438495 35.575427,2.552822 35.3917329,2.37047757 L33.2486349,0.243125904 C33.0649408,0.0607814761 32.9424781,0 32.6975526,0 L22.716839,0 Z M30.3095291,36.7727931 L25.0436311,36.7727931 L25.0436311,5.28798842 L30.3095291,5.28798842 L30.3095291,36.7727931 Z M39.9228544,39.9942113 L39.4330035,41.5137482 C39.3717721,41.8176556 39.4942348,42 39.8003917,42 L52.9039053,42 C53.1488308,42 53.2712935,41.9392185 53.4549876,41.7568741 L55.5980856,39.6295224 C55.7817797,39.447178 55.8430111,39.3256151 55.8430111,39.0824891 L55.8430111,2.91751085 C55.8430111,2.67438495 55.7817797,2.552822 55.5980856,2.37047757 L53.4549876,0.243125904 C53.2712935,0.0607814761 53.1488308,0 52.9039053,0 L39.8003917,0 C39.4942348,0 39.3717721,0.182344428 39.4330035,0.486251809 L39.9228544,1.94500724 L39.9228544,39.9942113 Z M50.5158818,5.22720695 L50.5158818,36.7120116 L45.2499838,36.7120116 L45.2499838,5.22720695 L50.5158818,5.22720695 Z M75.9881325,37.1374819 C76.0493638,36.894356 75.8656697,36.7120116 75.6207442,36.7120116 L65.4563365,36.7120116 L65.4563365,23.5832127 L68.7628306,23.5832127 L70.2936149,24.0694645 C70.5997717,24.1910275 70.7834658,24.0694645 70.7834658,23.7655572 L70.7834658,18.1736614 C70.7834658,17.869754 70.5997717,17.748191 70.2936149,17.869754 L68.7628306,18.3560058 L65.4563365,18.3560058 L65.4563365,5.22720695 L75.6207442,5.22720695 C75.8656697,5.22720695 76.0493638,5.04486252 75.9881325,4.80173661 L75.4370501,0.425470333 C75.3758187,0.121562952 75.253356,0 74.9471991,0 L60.0067444,0 C59.7005875,0 59.5781248,0.182344428 59.7005875,0.486251809 L60.1904385,1.94500724 L60.1904385,39.9942113 L59.7005875,41.5137482 C59.5781248,41.8176556 59.7005875,42 60.0067444,42 L74.9471991,42 C75.253356,42 75.3758187,41.878437 75.4370501,41.5745297 L75.9881325,37.1374819 Z" id="CODE" fill="#515B80"></path>
                    </g>
                </g>
            </g>
        </g>
    </g>
</svg>