<?xml version="1.0" encoding="utf-8"?>
<!-- Generator: Adobe Illustrator 18.0.0, SVG Export Plug-In . SVG Version: 6.00 Build 0)  -->
<!DOCTYPE svg PUBLIC "-//W3C//DTD SVG 1.1//EN" "http://www.w3.org/Graphics/SVG/1.1/DTD/svg11.dtd">
<svg version="1.1" id="Layer_1" xmlns:sketch="http://www.bohemiancoding.com/sketch/ns"
	 xmlns="http://www.w3.org/2000/svg" xmlns:xlink="http://www.w3.org/1999/xlink" x="0px" y="0px" viewBox="0 0 174 49"
	 enable-background="new 0 0 174 49" xml:space="preserve">
<title>code-convoy</title>
<desc>Created with Sketch.</desc>
<g id="code-convoy" transform="translate(448.000000, 35.000000)">
	<path id="wave" fill="none" stroke="#FFFFFF" stroke-width="2" stroke-linecap="round" d="M-364,0c0,0,18.8-6.3,41-3s28,4,48-6"/>
	<path id="wave_1_" fill="none" stroke="#FFFFFF" stroke-width="2" stroke-linecap="round" d="M-364-23c0,0,14.3-6.7,32.4-3.3
		s44.7,2.7,54.6-6.7"/>
	<path id="convoy" fill="#FFFFFF" d="M-327-14.7c-1.9,2.9-3.8,3.4-4.5,3.1c-0.1,0-0.4-0.2-0.2-0.7c0.2-0.5,0.5-1.1,0.8-1.7
		c0.5-0.9,1.1-2,1.3-3.1c0.3-1.6-0.4-2.9-1.6-3.5c-1.1-0.4-2.8-0.2-4.4,1.4c-0.2-0.5-0.6-0.9-1-1.1c-1.2-0.7-3.3-0.5-5.1,1.6
		c0,0,0,0,0,0c-0.7,0.9-1.4,1.8-2.2,2.4c0-0.9-0.1-1.6-0.4-2.3c-0.4-0.9-1.2-1.6-2.2-1.9c-0.4-0.1-0.7-0.2-1.1-0.2
		c-2.5,0-5.3,2.3-6,5.7c-1.6,2.4-3.6,4-5.7,4c-1.7,0-2.8-1-2.9-2.4c0-1.2,0.6-2.7,1.6-3.7c0.6-0.6,1.3-1,1.8-1
		c0.3,0,0.7,0.1,0.7,0.8c0,0.3-0.1,0.5-0.2,0.8c-0.2,0.6,0.1,1.2,0.7,1.4s1.2-0.1,1.4-0.7c0.2-0.5,0.3-1.1,0.3-1.6
		c0-1.7-1.2-3-2.9-3c-1.2,0-2.4,0.6-3.4,1.6c-1.4,1.4-2.3,3.5-2.2,5.3c0.1,2.7,2.1,4.6,5,4.6h0c2.2,0,4.2-1,5.9-2.8l0,0
		c0.6,1.7,2.1,2.5,3.6,2.5c2.1,0,4-1.4,5-3.6c0.1-0.2,0.2-0.5,0.3-0.7c1.8-0.6,3.3-2.3,4.6-4c1.1-1.2,2-1.4,2.3-1.2
		c0.3,0.2,0.3,0.7,0.1,1.4c-0.3,0.7-1.1,2.1-1.8,3.4c-0.6,1-1.1,2.1-1.6,3c-0.3,0.5-0.1,1.2,0.5,1.5c0.2,0.1,0.3,0.1,0.5,0.1
		c0.4,0,0.8-0.2,1-0.6c0.4-0.9,1-1.9,1.5-2.8c0,0,0,0,0-0.1c0,0,1.4-2.1,2.6-4c1.2-1.8,2.4-2.2,2.9-2c0.3,0.1,0.4,0.6,0.3,1
		c-0.1,0.8-0.6,1.6-1.1,2.4c-0.4,0.7-0.8,1.3-1,2c-0.5,1.4,0.1,2.8,1.3,3.4c0.4,0.2,0.9,0.3,1.4,0.3c1.8,0,4-1.3,6-4.4
		c0-0.1,0.1-0.1,0.1-0.2l1.3-2l0.3,6c0,0.5,0.3,0.9,0.8,1c0.1,0,0.2,0,0.3,0l0,0c0.3,0,0.7-0.2,0.9-0.4l4.2-5.8
		c0.3,1.5,1.1,2.6,2.2,3.1c1,0.5,2.2,0.5,3.2-0.1c0.5,2.2,2.1,3.1,3.8,3.1c1.6,0,3.2-0.9,4.3-2.4c0.2,0.1,0.4,0.1,0.5,0.1
		c0.3,0.1,0.6,0.1,0.9,0.1c1.7,0,3.3-1,4.4-2.7c0-0.1,0.1-0.1,0.1-0.2c1.3-2.4,2.9-5,3.5-5.2c0.1,0,0.2,0,0.2,0.3
		c0,0.2,0,0.4-0.2,0.8c-0.2,0.3-0.8,1.3-1.5,2.8c-0.2,0.4-0.9,1.8-0.9,3.2c0,1.6,0.9,2.7,2.4,3.1c0.6,0.2,1.3,0.2,1.9,0l-11.1,21.1
		c-0.3,0.5-0.1,1.2,0.5,1.5c0.2,0.1,0.3,0.1,0.5,0.1c0.4,0,0.8-0.2,1-0.6l11.5-21.9c0.5,0.1,1,0.2,1.5,0.2c2.4,0,5.5-1.4,8.1-5.4
		c0.3-0.5,0.2-1.2-0.3-1.5l0,0c-0.5-0.3-1.2-0.2-1.5,0.3c-2.3,3.5-4.8,4.6-6.6,4.4l1.6-3c1.4-2.2,2.5-4.7,2.5-4.8
		c0.2-0.5,0-1.2-0.5-1.4c-0.5-0.3-1.2-0.1-1.5,0.5l-2.5,4.7l-0.1,0.2c-0.6,1-2.2,3.7-3.9,3.7c-0.1,0-0.3,0-0.4-0.1
		c-0.6-0.1-0.7-0.4-0.7-0.9c0-0.6,0.2-1.3,0.7-2.3c0.8-1.6,1.4-2.6,1.4-2.6c0-0.1,0.1-0.1,0.1-0.2c0.2-0.6,0.4-1.2,0.4-1.7
		c0-1.5-1-2.5-2.4-2.5c-1.8,0-3,2.1-5.4,6.4l-0.1,0.1c0,0,0,0.1-0.1,0.1l0,0c-0.8,1.1-1.8,1.7-2.8,1.5c0.8-2,0.9-3.8,0.2-5.1
		c-0.4-0.9-1.2-1.6-2.2-1.9c-0.4-0.1-0.7-0.2-1.1-0.2c-2.4,0-5.1,2.1-5.9,5.4c0,0-0.1,0.1-0.1,0.1c-0.6,1-1.5,1.4-2.2,1
		c-0.9-0.5-1.5-2.2-0.5-4.8c0.2-0.5,0-1.1-0.5-1.4c-0.5-0.3-1.1-0.1-1.4,0.3l-4.9,6.7l-0.3-6.4c0-0.5-0.3-0.9-0.8-1
		c-0.5-0.1-1,0.1-1.2,0.5l-3.3,5.1C-326.9-14.8-327-14.8-327-14.7z M-349.9-11.1c-1.1,0-1.7-0.8-1.7-2.2c0-3,2.3-5,3.9-5
		c0.2,0,0.3,0,0.5,0.1c0.4,0.1,0.7,0.4,0.8,0.7c0.3,0.5,0.3,1.3,0,2.3c-0.5-0.1-0.7-0.4-0.9-0.6c-0.2-0.6-0.9-0.8-1.4-0.6
		c-0.6,0.2-0.8,0.9-0.6,1.4c0.4,0.9,1.2,1.6,2.1,1.8C-347.8-11.8-349-11.1-349.9-11.1L-349.9-11.1z M-308-11c-1.1,0-1.7-0.8-1.7-2.2
		c0-3,2.3-5,3.9-5c0.2,0,0.3,0,0.5,0.1c0.4,0.1,0.7,0.4,0.8,0.7c0.3,0.7,0.2,1.8-0.2,3.1c-0.3-0.3-0.5-0.8-0.6-1.2
		c-0.1-0.6-0.7-1-1.3-0.9c-0.6,0.1-1,0.7-0.9,1.3c0.2,1.1,0.8,2.1,1.7,2.8C-306.4-11.4-307.3-11-308-11L-308-11z"/>
	<path id="CODE" fill="#FFFFFF" d="M-435.1,7c0.2,0,0.4-0.1,0.6-0.2l2.1-2.1c0.2-0.2,0.2-0.3,0.2-0.5v-5.7l0.5-1.5
		c0.1-0.3,0-0.5-0.3-0.5h-5.6c-0.3,0-0.4,0.2-0.3,0.5l0.5,1.5v3.3h-5.3v-31.5h5.3v3.3l-0.5,1.5c-0.1,0.3,0,0.5,0.3,0.5h5.6
		c0.3,0,0.4-0.2,0.3-0.5l-0.5-1.5v-5.6c0-0.2-0.1-0.4-0.2-0.5l-2.1-2.1c-0.2-0.2-0.3-0.2-0.6-0.2h-10c-0.2,0-0.4,0.1-0.6,0.2
		l-2.1,2.1c-0.2,0.2-0.2,0.3-0.2,0.5V4.1c0,0.2,0.1,0.4,0.2,0.5l2.1,2.1c0.2,0.2,0.3,0.2,0.6,0.2H-435.1z M-425.3-35
		c-0.2,0-0.4,0.1-0.6,0.2l-2.1,2.1c-0.2,0.2-0.2,0.3-0.2,0.5V4.1c0,0.2,0.1,0.4,0.2,0.5l2.1,2.1c0.2,0.2,0.3,0.2,0.6,0.2h10
		c0.2,0,0.4-0.1,0.6-0.2l2.1-2.1c0.2-0.2,0.2-0.3,0.2-0.5v-36.2c0-0.2-0.1-0.4-0.2-0.5l-2.1-2.1c-0.2-0.2-0.3-0.2-0.6-0.2H-425.3z
		 M-417.7,1.8h-5.3v-31.5h5.3V1.8z M-408.1,5l-0.5,1.5c-0.1,0.3,0.1,0.5,0.4,0.5h13.1c0.2,0,0.4-0.1,0.6-0.2l2.1-2.1
		c0.2-0.2,0.2-0.3,0.2-0.5v-36.2c0-0.2-0.1-0.4-0.2-0.5l-2.1-2.1c-0.2-0.2-0.3-0.2-0.6-0.2h-13.1c-0.3,0-0.4,0.2-0.4,0.5l0.5,1.5V5z
		 M-397.5-29.8V1.7h-5.3v-31.5H-397.5z M-372,2.1c0.1-0.2-0.1-0.4-0.4-0.4h-10.2v-13.1h3.3l1.5,0.5c0.3,0.1,0.5,0,0.5-0.3v-5.6
		c0-0.3-0.2-0.4-0.5-0.3l-1.5,0.5h-3.3v-13.1h10.2c0.2,0,0.4-0.2,0.4-0.4l-0.6-4.4c-0.1-0.3-0.2-0.4-0.5-0.4H-388
		c-0.3,0-0.4,0.2-0.3,0.5l0.5,1.5V5l-0.5,1.5c-0.1,0.3,0,0.5,0.3,0.5h14.9c0.3,0,0.4-0.1,0.5-0.4L-372,2.1z"/>
</g>
</svg>
