<?xml version="1.0" encoding="utf-8"?>
<!-- Generator: Adobe Illustrator 15.0.0, SVG Export Plug-In . SVG Version: 6.00 Build 0)  -->
<!DOCTYPE svg PUBLIC "-//W3C//DTD SVG 1.1//EN" "http://www.w3.org/Graphics/SVG/1.1/DTD/svg11.dtd">
<svg version="1.1" id="Layer_1" xmlns="http://www.w3.org/2000/svg" xmlns:xlink="http://www.w3.org/1999/xlink" x="0px" y="0px"
	 width="204.667px" height="71.666px" viewBox="0 0 204.667 71.666" enable-background="new 0 0 204.667 71.666"
	 xml:space="preserve">
<rect x="0.173" y="22.928" fill="#5C2946" width="19.77" height="5.107"/>
<rect x="0.173" y="14.291" fill="#5C2946" width="19.77" height="5.107"/>
<rect x="0.173" y="31.564" fill="#5C2946" width="32.426" height="5.107"/>
<rect x="0.173" y="66.112" fill="#5C2946" width="32.426" height="5.107"/>
<rect x="0.173" y="57.475" fill="#5C2946" width="32.426" height="5.107"/>
<rect x="0.173" y="48.839" fill="#5C2946" width="32.426" height="5.107"/>
<rect x="0.173" y="40.201" fill="#5C2946" width="32.426" height="5.106"/>
<g>
	<defs>
		<rect id="SVGID_1_" x="-5.961" y="-4.203" width="224.211" height="81.748"/>
	</defs>
	<clipPath id="SVGID_2_">
		<use xlink:href="#SVGID_1_"  overflow="visible"/>
	</clipPath>
	<path clip-path="url(#SVGID_2_)" fill="#5C2946" d="M16.06,0.116h-2.795H8.543c-4.81,0-8.37,2.67-8.37,8.011v1.869h7.951h7.936
		h4.281h3.886c4.811,0,8.372-2.67,8.372-8.01v-1.87h-0.024H16.06z"/>
	<path clip-path="url(#SVGID_2_)" fill="#5C2946" d="M54.639,0.116v37.299v33.173h1.634c4.812,0,8.371-2.671,8.371-8.012V43.152
		V0.116H54.639z"/>
	<path clip-path="url(#SVGID_2_)" fill="#919195" d="M89.889,30.683c-0.43-3.295-1.374-3.688-4.314-3.727l-5.688-0.076v8.591
		c0,2.941,0.783,3.409,3.572,3.528v0.746H72.473v-0.746c2.94-0.157,3.413-0.747,3.413-3.962V18.053c0-3.1-0.939-3.333-3.413-3.531
		v-0.746h20.83l0.118,5.61h-0.982c-0.586-3.493-1.608-4.118-5.964-4.118h-5.333c-0.981,0-1.255,0.153-1.255,1.331v8.708h5.688
		c3.22,0,3.919-0.783,4.314-3.723h0.904v9.099H89.889z"/>
	<path clip-path="url(#SVGID_2_)" fill="#919195" d="M92.394,39.155c2.433-0.117,3.099-0.352,3.099-3.414v-9.098
		c0-2.314-0.744-2.354-1.375-2.354c-0.547,0-1.059,0.079-1.564,0.158v-0.591c2.038-0.667,4.035-1.411,6.077-2.154l0.157,0.113
		v13.926c0,2.59,0.196,3.257,2.902,3.414v0.589h-9.295V39.155z M96.786,12.953c1.177,0,2.04,0.903,2.04,2c0,1.138-0.863,2-2.04,2
		c-1.413,0-1.959-1.255-1.959-2C94.827,14.209,95.413,12.953,96.786,12.953"/>
	<path clip-path="url(#SVGID_2_)" fill="#919195" d="M105.313,26.643c0-2.314-0.742-2.354-1.37-2.354
		c-0.551,0-0.981,0.079-1.333,0.158v-0.628c1.922-0.63,3.882-1.334,5.805-2.117l0.198,0.076v3.492h0.075
		c1.847-2.784,3.178-3.567,4.668-3.567c1.331,0,2.12,0.821,2.12,2.117c0,0.98-0.553,1.724-1.497,1.724
		c-1.369,0-1.758-1.373-2.701-1.373c-0.939,0-2.666,1.962-2.666,3.217v8.826c0,2.709,1.331,2.864,3.332,2.941v0.589h-9.413v-0.589
		c2.158-0.391,2.782-0.508,2.782-2.705V26.643z"/>
	<path clip-path="url(#SVGID_2_)" fill="#919195" d="M125.505,27.426c-0.864-4.002-2.631-4.823-4.359-4.823
		c-2.152,0-2.98,1.529-2.98,2.548c0,0.785,0.237,1.922,1.689,2.787l4.238,2.507c1.919,1.177,3.295,2.276,3.295,4.631
		c0,3.411-3.182,5.059-5.69,5.059c-1.763,0-3.45-0.745-4.551-0.706c-0.47,0-0.624,0.12-0.859,0.474h-0.513V33.78h0.627
		c0.473,2.08,1.216,5.493,5.063,5.493c1.33,0,3.176-0.626,3.176-2.864c0-1.255-0.786-2.195-2.041-2.903l-2.276-1.293
		c-2.432-1.373-4.589-2.826-4.589-5.727c0-2.197,1.688-4.785,5.494-4.785c1.722,0,2.94,0.783,3.609,0.783
		c0.349,0,0.545-0.275,0.667-0.434h0.43l0.158,5.375H125.505z"/>
	<path clip-path="url(#SVGID_2_)" fill="#919195" d="M136.664,23.347h-3.959v11.219c0,1.215,0,3.53,2.002,3.53
		c1.254,0,1.957-0.862,2.389-1.371l0.511,0.43c-0.943,1.687-2.786,2.981-4.585,2.981c-2.006,0-3.609-1.059-3.609-4.982V23.347
		h-2.082c-0.079-0.04-0.156-0.158-0.156-0.274c0-0.47,0.863-0.706,1.728-1.567c1.489-1.532,2.078-2.396,3.528-4.473
		c0.275,0,0.275,0.197,0.275,0.51v4.548h3.959V23.347z"/>
	<path clip-path="url(#SVGID_2_)" fill="#919195" d="M72.445,44.426h10.986c3.414,0,10.278,0.551,10.278,6.627
		c0,4.354-3.451,5.216-5.219,5.651v0.078c3.413,0.703,6.552,2.59,6.552,6.708c0,1.489-0.784,6.902-9.492,6.902H72.445v-0.742
		c3.297-0.081,3.772-0.747,3.772-3.533V48.7c0-2.903-0.553-3.373-3.772-3.529V44.426z M80.215,67.333
		c0,1.45,0.707,1.607,2.982,1.607c2.586,0,7.332-0.353,7.332-5.608c0-3.217-1.918-4.511-3.96-5.138
		c-1.338-0.394-2.587-0.589-6.354-0.589V67.333z M80.215,56.077l3.726-0.042c1.101,0,5.766-0.08,5.766-4.746
		c0-4.667-4.078-5.416-6.861-5.416c-0.826,0-1.375,0.04-1.766,0.04c-0.789,0-0.864,0.55-0.864,1.137V56.077z"/>
	<path clip-path="url(#SVGID_2_)" fill="#919195" d="M113.71,68.98c-2.118,0.549-3.61,1.101-5.453,1.766l-0.076-0.08v-3.254
		l-1.691,1.686c-1.527,1.53-3.409,1.687-4.115,1.687c-1.608,0-4.669-0.941-4.669-5.099v-9.886c0-2.351-1.256-2.432-2.433-2.509
		V52.74h5.728v12.788c0,0.55,0.352,2.981,2.94,2.981c1.174,0,2.353-0.546,3.413-1.41c0.354-0.316,0.631-0.706,0.631-2.001v-9.217
		c0-1.569-0.159-2.394-2.904-2.472V52.74h6.197v13.454c0,1.414,0.079,2.315,2.431,2.237V68.98z"/>
	<path clip-path="url(#SVGID_2_)" fill="#919195" d="M124.347,58.074c-0.866-3.998-2.629-4.824-4.355-4.824
		c-2.162,0-2.985,1.531-2.985,2.549c0,0.784,0.236,1.924,1.685,2.786l4.242,2.51c1.917,1.178,3.294,2.277,3.294,4.629
		c0,3.41-3.181,5.06-5.69,5.06c-1.761,0-3.451-0.744-4.55-0.704c-0.468,0-0.627,0.115-0.862,0.468h-0.508v-6.116h0.624
		c0.474,2.077,1.218,5.488,5.062,5.488c1.331,0,3.177-0.626,3.177-2.863c0-1.254-0.784-2.196-2.042-2.904l-2.274-1.293
		c-2.431-1.37-4.59-2.825-4.59-5.725c0-2.197,1.686-4.786,5.494-4.786c1.727,0,2.94,0.783,3.608,0.783
		c0.353,0,0.549-0.274,0.671-0.43h0.432l0.154,5.371H124.347z"/>
	<path clip-path="url(#SVGID_2_)" fill="#919195" d="M126.695,69.804c2.433-0.115,3.096-0.353,3.096-3.412v-9.1
		c0-2.314-0.744-2.354-1.37-2.354c-0.551,0-1.06,0.081-1.57,0.158v-0.592c2.04-0.664,4.043-1.411,6.083-2.154l0.154,0.118v13.924
		c0,2.59,0.2,3.257,2.907,3.412v0.588h-9.299V69.804z M131.092,43.6c1.174,0,2.037,0.904,2.037,2.004
		c0,1.137-0.863,1.999-2.037,1.999c-1.416,0-1.964-1.257-1.964-1.999C129.128,44.856,129.717,43.6,131.092,43.6"/>
	<path clip-path="url(#SVGID_2_)" fill="#919195" d="M139.21,57.135c0-2.472-0.745-2.512-1.374-2.512
		c-0.546,0-0.979,0.078-1.136,0.158v-0.666c1.765-0.512,3.609-1.099,5.412-1.767l0.275,0.079v3.101
		c1.926-1.807,3.415-3.18,5.727-3.18c1.807,0,4.592,1.059,4.592,5.885v8.979c0,1.848,0.473,2.436,2.392,2.591v0.586h-8.159v-0.586
		c1.451-0.116,2.471-0.314,2.471-3.295v-8.197c0-2.394-0.706-3.809-3.023-3.809c-1.173,0-2.39,0.785-3.88,2.239v11.021
		c0,1.297,0.546,1.924,2.589,2.041v0.586h-8.315v-0.586c1.838-0.116,2.43-0.629,2.43-2.941V57.135z"/>
	<path clip-path="url(#SVGID_2_)" fill="#919195" d="M170.75,64.234c-0.391,1.214-2.667,6.55-8.313,6.55
		c-4.358,0-7.335-3.217-7.335-8.789c0-7.254,4.861-9.646,7.999-9.646c3.687,0,6.474,2.038,6.908,7.178h-12.207
		c0.477,6.942,3.655,8.553,6.243,8.553c3.491,0,5.179-2.668,6.081-4.121L170.75,64.234z M166.007,58.272
		c-0.276-1.885-0.666-4.51-3.769-4.51c-2.159,0-3.684,1.056-4.313,4.51H166.007z"/>
	<path clip-path="url(#SVGID_2_)" fill="#919195" d="M182.126,58.074c-0.863-3.998-2.628-4.824-4.353-4.824
		c-2.157,0-2.982,1.531-2.982,2.549c0,0.784,0.234,1.924,1.685,2.786l4.237,2.51c1.922,1.178,3.293,2.277,3.293,4.629
		c0,3.41-3.178,5.06-5.688,5.06c-1.764,0-3.456-0.744-4.55-0.704c-0.468,0-0.626,0.115-0.865,0.468h-0.505v-6.116h0.625
		c0.473,2.077,1.215,5.488,5.062,5.488c1.333,0,3.178-0.626,3.178-2.863c0-1.254-0.784-2.196-2.04-2.904l-2.278-1.293
		c-2.429-1.37-4.589-2.825-4.589-5.725c0-2.197,1.687-4.786,5.496-4.786c1.721,0,2.939,0.783,3.606,0.783
		c0.354,0,0.55-0.274,0.668-0.43h0.427l0.16,5.371H182.126z"/>
	<path clip-path="url(#SVGID_2_)" fill="#919195" d="M195.422,58.074c-0.865-3.998-2.629-4.824-4.354-4.824
		c-2.16,0-2.983,1.531-2.983,2.549c0,0.784,0.237,1.924,1.688,2.786l4.237,2.51c1.921,1.178,3.295,2.277,3.295,4.629
		c0,3.41-3.177,5.06-5.683,5.06c-1.773,0-3.457-0.744-4.558-0.704c-0.47,0-0.628,0.115-0.861,0.468h-0.51v-6.116h0.628
		c0.469,2.077,1.214,5.488,5.061,5.488c1.334,0,3.176-0.626,3.176-2.863c0-1.254-0.783-2.196-2.04-2.904l-2.277-1.293
		c-2.429-1.37-4.588-2.825-4.588-5.725c0-2.197,1.687-4.786,5.494-4.786c1.725,0,2.94,0.783,3.607,0.783
		c0.354,0,0.55-0.274,0.669-0.43h0.428l0.156,5.371H195.422z"/>
	<path clip-path="url(#SVGID_2_)" fill="#919195" d="M199.23,54.843c0-1.155,0.87-2.021,1.981-2.021
		c1.103,0,1.972,0.866,1.972,2.021c0,1.172-0.869,2.032-1.972,2.032C200.1,56.875,199.23,56.015,199.23,54.843 M201.638,57.243
		c1.388-0.267,1.797-0.676,2.032-2.4c0-1.396-1.132-2.426-2.459-2.426c-1.337,0-2.472,1.03-2.472,2.426
		C198.739,56.251,200.114,57.535,201.638,57.243 M200.697,55.034h0.488l0.743,1.217h0.475l-0.799-1.236
		c0.413-0.05,0.729-0.272,0.729-0.772c0-0.555-0.329-0.796-0.994-0.796h-1.064v2.805h0.422V55.034z M200.697,54.674v-0.868h0.58
		c0.296,0,0.611,0.065,0.611,0.412c0,0.433-0.324,0.456-0.684,0.456H200.697z"/>
</g>
</svg>
