<?xml version="1.0" encoding="UTF-8" standalone="no"?>
<svg width="75px" height="74px" viewBox="0 0 75 74" version="1.1" xmlns="http://www.w3.org/2000/svg" xmlns:xlink="http://www.w3.org/1999/xlink" xmlns:sketch="http://www.bohemiancoding.com/sketch/ns">
    <title>Headway</title>
    <desc>Building Brands with Great Experiences</desc>
    <defs>
        <rect id="path-1" x="9.33161875" y="9.25" width="55.9897125" height="55.5" rx="200"></rect>
        <path id="path-3" d="M5.39160193,54.2666666 C7.88012413,54.2666768 15.7600671,43.1666668 41.473861,49.7444446 C67.1876549,56.3222224 69.6760865,44.8111111 69.6760865,44.8111111 L69.6760865,70.3 L5.39160195,70.3 C5.39160195,70.3 2.90307973,54.2666563 5.39160193,54.2666666 Z"></path>
    </defs>
    <g id="Headway-Landing-Page" stroke="none" stroke-width="1" fill="none" fill-rule="evenodd" sketch:type="MSPage">
        <g id="LP" sketch:type="MSArtboardGroup" transform="translate(-167.000000, -36.000000)">
            <g id="Header-Info" sketch:type="MSLayerGroup" transform="translate(-9.000000, -160.000000)">
                <g id="Group" transform="translate(176.000000, 196.000000)">
                    <g id="NAV">
                        <g id="Logo-Copy">
                            <path d="M0,37 C0,16.5654643 16.5679092,0 36.998414,0 L37.654536,0 C58.0881958,0 74.65295,16.5609713 74.65295,37 C74.65295,57.4345357 58.0850408,74 37.654536,74 L36.998414,74 C16.5647542,74 0,57.4390287 0,37 Z M5.18423264,37 C5.18423264,19.4035942 19.4510433,5.13888889 37.0439781,5.13888889 L37.608972,5.13888889 C55.2046235,5.13888889 69.4687174,19.3997253 69.4687174,37 C69.4687174,54.5964058 55.2019067,68.8611111 37.608972,68.8611111 L37.0439781,68.8611111 C19.4483265,68.8611111 5.18423264,54.6002747 5.18423264,37 Z" id="Rectangle-1-Copy" fill="#414141" sketch:type="MSShapeGroup"></path>
                            <mask id="mask-2" sketch:name="Mask" fill="white">
                                <use xlink:href="#path-1"></use>
                            </mask>
                            <use id="Mask" sketch:type="MSShapeGroup" xlink:href="#path-1"></use>
                            <path d="M49.5094217,48.6034785 L49.5094217,24.9236111 L44.0947787,24.9236111 L44.0947787,34.2926785 L30.5581713,34.2926785 L30.5581713,34.2926785 L30.5581713,24.9236111 L25.1435283,24.9236111 L25.1435283,44.8143335 C26.8178672,44.7898107 28.6194928,44.8575361 30.558165,45.0400831 L30.5581713,39.7073215 L44.0947787,39.7073215 L44.0947787,47.6398876 C46.0402915,48.0650289 47.8416562,48.3812067 49.5094217,48.6034785 Z" id="Rectangle-2-Copy-2" fill="#414141" sketch:type="MSShapeGroup" mask="url(#mask-2)"></path>
                            <g id="Path-64-Copy">
                                <use fill="#31AAB7" fill-rule="evenodd" sketch:type="MSShapeGroup" mask="url(#mask-2)" xlink:href="#path-3"></use>
                                <use fill="none" xlink:href="#path-3"></use>
                            </g>
                        </g>
                    </g>
                </g>
            </g>
        </g>
    </g>
</svg>