<?xml version="1.0" encoding="utf-8"?>
<!-- Generator: Adobe Illustrator 18.0.0, SVG Export Plug-In . SVG Version: 6.00 Build 0)  -->
<!DOCTYPE svg PUBLIC "-//W3C//DTD SVG 1.1//EN" "http://www.w3.org/Graphics/SVG/1.1/DTD/svg11.dtd">
<svg version="1.1" id="Layer_1" xmlns="http://www.w3.org/2000/svg" xmlns:xlink="http://www.w3.org/1999/xlink" x="0px" y="0px"
	 viewBox="0 0 205.1 215.9" enable-background="new 0 0 205.1 215.9" xml:space="preserve">
<path fill="#E5C195" d="M203.4,196.9c-24.4-28.1-21.3-77.3-32.5-137.6c-0.4-1.9-2-3.3-4-3.3h-17.1c-2,0-3.7,1.5-4,3.5l-1.1,9
	c-0.3,2-2,3.5-4,3.5h-15.3c-1.8,0-3.4-1.3-3.9-3.1l-2.5-9.9c-0.4-1.8-2-3-3.9-3H89.4c-1.8,0-3.4,1.2-3.9,3l-2.5,10
	c-0.4,1.8-2,3.1-3.9,3.1H63.8c-2,0-3.7-1.5-4-3.5l-1.1-9c-0.3-2-2-3.5-4-3.5H37.6c-1.9,0-3.6,1.4-4,3.2
	C22.6,118.9,25.5,167.8,1.9,196c-2.1,2.6-2.5,6.1-1,9.1c1,2,2.7,3.4,4.7,4.2c6.3,2.3,21.8,6.6,48.7,6.6c36.5,0,59.7-12,96-12
	c25.4,0,40.7,2,47.6,3.1c2.6,0.4,5.3-0.9,6.4-3.3l0-0.1C205.6,201.4,205.1,198.8,203.4,196.9z M30.3,187.9c-2.2,0-4-1.8-4-4
	c0-2.2,1.8-4,4-4c2.2,0,4,1.8,4,4C34.3,186.2,32.5,187.9,30.3,187.9z M48.3,199.9c-3.3,0-6-2.7-6-6c0-3.3,2.7-6,6-6s6,2.7,6,6
	C54.3,197.3,51.6,199.9,48.3,199.9z M50.3,175.9c-2.2,0-4-1.8-4-4c0-2.2,1.8-4,4-4c2.2,0,4,1.8,4,4
	C54.3,174.2,52.5,175.9,50.3,175.9z M168.3,188.3c-5.4-0.2-11.3-0.3-18-0.3c-13.1,0-24.6,1.4-35.3,3.3c-2.5,0.4-4.7-1.5-4.7-4
	c0.7-46.2,7.1-71.3,27.9-71.3c20.3,0,26.8,23.6,34,67.7C172.7,186.1,170.8,188.4,168.3,188.3z"/>
<path fill="#30A7BF" d="M148.6,27.5c0.7,0.9,0.3,2.3-0.9,2.5c-13.7,2.4-27.7,2.5-41.4,0.7v15.8c0,0.8-0.7,1.5-1.5,1.5h-5
	c-0.8,0-1.5-0.7-1.5-1.5V1.9c0-1.2,1.1-2.2,2.3-1.9c15.3,2.7,31,2.8,46.3,0.2c1.3-0.2,2.2,1.2,1.5,2.2c-3.1,4.8-6.3,8.3-9.5,13
	c-0.4,0.5-0.3,1.3,0.1,1.8C142.3,21.1,145.4,23.8,148.6,27.5z"/>
</svg>
