<?xml version="1.0" encoding="utf-8"?>
<!-- Generator: Adobe Illustrator 18.0.0, SVG Export Plug-In . SVG Version: 6.00 Build 0)  -->
<!DOCTYPE svg PUBLIC "-//W3C//DTD SVG 1.1//EN" "http://www.w3.org/Graphics/SVG/1.1/DTD/svg11.dtd">
<svg version="1.1" id="Layer_1" xmlns="http://www.w3.org/2000/svg" xmlns:xlink="http://www.w3.org/1999/xlink" x="0px" y="0px"
	 viewBox="0 0 560 122" enable-background="new 0 0 560 122" xml:space="preserve">
<path id="Sandcastle_1_" fill="#FFFFFF" d="M553.6,86.5l-22.9,1.3c0.9,10.1,6.9,14.5,14.3,14.5c5.9,0,9.6-2.9,11.1-4.4
	c0.6-0.6,1.5-0.6,2,0c0.7,0.6,1.4,1.6,1.4,3c0,4.4-7.5,10.3-18.3,10.3c-13.2,0-22.2-8.5-22.1-22.8c0-15.1,9.9-26.3,23.5-26.3
	c11.5,0,17.5,8.1,17.5,17C560.1,84,558.3,86.3,553.6,86.5z M541,70.5c-6,0-9.4,4.9-10.2,11.5l17.1-1.1c1.1-0.1,1.5-0.8,1.5-2
	C549.3,76.1,547.2,70.5,541,70.5z M505.5,111.1c-5.2,0-7.5-6.1-7.5-13.1v-2.8v-43c0-3.3-0.2-6.7-0.4-8.9c-0.1-1.4,0.8-2.6,2.1-2.9
	c2.9-0.7,6-1.8,7.1-1.8c0.1,0,0.2,0,0.3,0c1.4,0.2,2.3,1.4,2.3,2.8v10v43.8l0,0.9c0,5.7,1.2,9.6,1.8,11.2c0.2,0.6,0.1,1.3-0.4,1.7
	C509.9,109.8,507.9,111.1,505.5,111.1z M482,102.1c1.9,0,3.3-0.7,4-1.2c0.5-0.4,1.2-0.3,1.7,0.1c0.8,0.6,1.8,1.8,1.8,3.3
	c0,3.2-4.6,6.9-11.6,6.9c-7.5,0-12.5-4.4-12.5-13.1V70.9h-5.3c-0.9,0-1.6-0.8-1.5-1.7l0.6-4c0.2-1.2,1.2-2.2,2.5-2.2l4.9,0l1-8.8
	c0.1-1.1,0.9-2.1,2-2.4c2-0.6,3.7-1.1,4.5-1.1h0c0.1,0,0.2,0,0.3,0c1.4,0.2,2.3,1.4,2.3,2.8l-0.1,9.5H488c0.9,0,1.6,0.8,1.5,1.7
	l-0.5,3.6c-0.2,1.5-1.5,2.6-2.9,2.6h-9v25.5C477.1,100.5,479.1,102.1,482,102.1z M444.6,83.4c5.6,2.8,8.9,7.3,8.9,13.2
	c0,9-7.5,14.7-18.2,14.7c-8.5,0-15.8-3.7-15.8-8.7c0-2.1,1.4-4,2.5-5.2c0.6-0.7,1.7-0.6,2.2,0.1c1.6,2,5.1,5.6,10.4,5.6
	c4.3,0,7.3-2.3,7.3-5.6c0-2.6-1.8-4.2-6-6.4l-6-3c-6.4-3.2-8.6-7.2-8.6-12.1c0-8.5,6.6-13.9,17.2-13.9v0c7.5,0,13.2,2.6,13.2,6.5
	c0,2.1-1.5,3.8-2.7,4.7c-0.6,0.5-1.5,0.5-2-0.1c-1.3-1.3-4-3.5-8-3.5c-3.6,0-6.4,1.8-6.4,4.9c0,2.3,1.5,3.4,6,5.7L444.6,83.4z
	 M405.5,111.1c-3.3,0-5.4-2.4-6.5-5.9c-3.3,2.9-8.4,6.1-14.5,6.1c-7.8,0-13.6-5.1-13.6-13.6c0-8.5,6.3-12.9,17.7-14l9.6-0.9l0-1.6
	c0.1-6.8-2.8-10.5-9.7-10.5c-5.8,0-9.4,2.7-10.9,4.1c-0.6,0.5-1.4,0.5-2,0c-0.7-0.6-1.4-1.6-1.4-3c0-4.2,6.8-9.6,16.9-9.6
	c11.9,0,18.9,6.9,18.6,19.7l-0.2,13.3v0.9c0,5.7,1.2,9.6,1.8,11.2c0.2,0.6,0.1,1.3-0.4,1.7C409.8,109.8,407.9,111.1,405.5,111.1z
	 M390.1,89.7c-4.7,0.5-8.2,2.7-8.2,6.9c0,3.6,2.3,6.3,6.9,6.3v0c3.5,0,6.9-1.6,9.2-3l-0.1-1.8v-2.8l0.1-6.3L390.1,89.7z
	 M351.6,102.5c5.7,0,9.3-2.7,10.8-4.1c0.6-0.5,1.4-0.5,2,0c0.7,0.6,1.4,1.6,1.4,2.9c0,4.3-7.4,9.9-17.7,9.9
	c-12.9,0-21.8-8.9-21.8-23.1c0-15.3,10.7-26,25-26v0c7.5,0,13.9,3.3,13.9,8c0,2.6-1.9,4.9-3.3,6.2c-0.7,0.6-1.7,0.5-2.2-0.2
	c-1.4-2-4.6-5.5-10.1-5.5c-7.3,0-11.8,6.3-11.8,15.4C337.7,96.2,342.6,102.5,351.6,102.5z M312.5,111.1c-3.1,0-5.2-2.2-6.4-5.5
	c-3.2,2.9-8,5.7-14.3,5.7c-10.7,0-19.4-8.4-19.4-22.5c0-15.5,10.4-26.6,23.2-26.6c4.2,0,7.5,1.2,9.7,2.3c-0.2-1.2-0.3-2.6-0.3-4.2
	v-8.1c0-3.3-0.2-6.7-0.4-9c-0.1-1.4,0.8-2.6,2.1-2.9c2.9-0.7,6-1.8,7.1-1.8c0.1,0,0.2,0,0.3,0c1.4,0.2,2.3,1.4,2.3,2.8l0,10v43.8
	v0.9c0,5.7,1.2,9.6,1.8,11.2c0.2,0.6,0.1,1.3-0.4,1.7C316.9,109.8,315,111.1,312.5,111.1z M305,98V72.2c-1.8-1-4.3-2-7.4-2
	c-7.9,0-13.5,6.7-13.5,17.1c0,9.6,4.5,15.1,11.7,15.1c3.7,0,6.8-1.3,9.2-2.9L305,98z M260.7,110.3c-2.6,0.1-5.1,0.3-6.1,0.3
	c-0.1,0-0.2,0-0.3,0c-1.4-0.2-2.3-1.4-2.3-2.8v-7V80.3c0-5.6-2.7-9-8.5-9c-4.8,0-8.7,2.5-10.5,3.8l0,0.2v25.5v6.6
	c0,1.5-1.2,2.8-2.7,2.9c-2.6,0.1-5.1,0.3-6.1,0.3c-0.1,0-0.2,0-0.3,0c-1.4-0.2-2.3-1.4-2.3-2.8v-7V77.3c0-5.7-1.2-9.6-1.8-11.2
	c-0.2-0.6-0.1-1.3,0.4-1.7c1-0.9,3-2.2,5.4-2.2c3.4,0,5.5,2.6,6.6,6.3c2.9-2.5,8.8-6.4,16.7-6.4c9.3,0,14.7,6,14.7,17.1v21.6l0,6.6
	C263.4,109,262.2,110.3,260.7,110.3z M204.5,111.1c-3.3,0-5.4-2.4-6.5-5.9c-3.3,2.9-8.4,6.1-14.5,6.1c-7.8,0-13.6-5.1-13.6-13.6
	c0-8.5,6.3-12.9,17.7-14l9.6-0.9l0-1.6c0.1-6.8-2.8-10.5-9.7-10.5c-5.8,0-9.4,2.7-10.9,4.1c-0.6,0.5-1.4,0.5-2,0
	c-0.7-0.6-1.4-1.6-1.4-3c0-4.2,6.8-9.6,16.9-9.6c11.9,0,18.9,6.9,18.6,19.7l-0.2,13.3v0.9c0,5.7,1.2,9.6,1.8,11.2
	c0.2,0.6,0.1,1.3-0.4,1.7C208.8,109.8,206.9,111.1,204.5,111.1z M189.1,89.7c-4.7,0.5-8.2,2.7-8.2,6.9c0,3.6,2.3,6.3,6.9,6.3v0
	c3.5,0,6.9-1.6,9.2-3l-0.1-1.8v-2.8l0.1-6.3L189.1,89.7z M154.6,83.4c5.6,2.8,8.9,7.3,8.9,13.2c0,9-7.5,14.7-18.2,14.7
	c-8.5,0-15.8-3.7-15.8-8.7c0-2.1,1.4-4,2.5-5.2c0.6-0.7,1.7-0.6,2.2,0.1c1.6,2,5.1,5.6,10.4,5.6c4.3,0,7.3-2.3,7.3-5.6
	c0-2.6-1.8-4.2-6-6.4l-6-3c-6.4-3.2-8.6-7.2-8.6-12.1c0-8.5,6.6-13.9,17.2-13.9v0c7.5,0,13.2,2.6,13.2,6.5c0,2.1-1.5,3.8-2.7,4.7
	c-0.6,0.5-1.5,0.5-2-0.1c-1.3-1.3-4-3.5-8-3.5c-3.6,0-6.4,1.8-6.4,4.9c0,2.3,1.5,3.4,6,5.7L154.6,83.4z M115,115.8
	c-0.7,1.3-2.1,2.1-3.6,1.9c-3.9-0.7-12.5-1.8-26.8-1.8c-20.4,0-33.4,6.7-53.9,6.7c-15.1,0-23.8-2.4-27.4-3.7
	c-1.2-0.4-2.1-1.3-2.6-2.4c-0.8-1.7-0.6-3.7,0.6-5.1c13.3-15.9,11.6-43.3,17.8-76.8c0.2-1.1,1.1-1.8,2.2-1.8H31c1.1,0,2.1,0.8,2.2,2
	l0.6,5.1c0.1,1.1,1.1,2,2.2,2h8.6c1,0,1.9-0.7,2.2-1.7l1.4-5.6c0.3-1,1.1-1.7,2.2-1.7h14.5c1,0,1.9,0.7,2.2,1.7l1.4,5.6
	c0.3,1,1.1,1.7,2.2,1.7h8.6c1.1,0,2.1-0.8,2.2-2l0.6-5.1c0.1-1.1,1.1-2,2.2-2H94c1.1,0,2,0.8,2.2,1.9c6.3,33.8,4.6,61.5,18.3,77.3
	C115.4,112.9,115.6,114.4,115,115.8L115,115.8z M17.2,102.4c-1.2,0-2.2,1-2.2,2.2c0,1.2,1,2.2,2.2,2.2c1.2,0,2.2-1,2.2-2.2
	C19.5,103.4,18.5,102.4,17.2,102.4z M28.5,95.6c-1.2,0-2.2,1-2.2,2.2c0,1.2,1,2.2,2.2,2.2c1.2,0,2.2-1,2.2-2.2
	C30.7,96.6,29.7,95.6,28.5,95.6z M27.3,106.9c-1.9,0-3.4,1.5-3.4,3.4c0,1.9,1.5,3.4,3.4,3.4c1.9,0,3.4-1.5,3.4-3.4
	C30.7,108.4,29.2,106.9,27.3,106.9z M97,104.4c-4.1-24.7-7.7-38-19.1-38c-11.7,0-15.3,14.1-15.7,40c0,1.4,1.2,2.5,2.6,2.3
	c6-1,12.4-1.8,19.8-1.8c3.7,0,7.1,0.1,10.1,0.2C96.1,107.1,97.2,105.8,97,104.4z M83.7,16.7c0.4,0.5,0.1,1.3-0.5,1.4
	c-7.7,1.3-15.5,1.4-23.3,0.4v8.9c0,0.5-0.4,0.8-0.8,0.8h-2.8c-0.5,0-0.8-0.4-0.8-0.8v-25c0-0.7,0.6-1.2,1.3-1.1
	c8.6,1.5,17.4,1.6,26,0.1C83.5,1.3,84,2,83.6,2.7c-1.8,2.7-3.5,4.7-5.3,7.3c-0.2,0.3-0.2,0.7,0,1C80.1,13.2,81.9,14.7,83.7,16.7z"/>
</svg>
